# xmcd
#
# Track frame offsets: 
#        150
#        43400
#        70925
#        88172
#        104672
#        133472
#        149820
#        163397
#        176222
#        187997
#
# Disc length: 2715 seconds
#
# Revision: 6
# Processed by: cddbd v1.5.2PL0 Copyright (c) Steve Scherf et al.
# Submitted via: ExactAudioCopy v0.95b4
#
DISCID=ab0a990a
DTITLE=Vomácka, Sammy - Easy Rider
DYEAR=1984
DGENRE=Jazz
TTITLE0=Easy rider
TTITLE1=Love in vain
TTITLE2=Maple leaf rag
TTITLE3=Roznouké Hodiny
TTITLE4=Tickle dew
TTITLE5=Why should I spend my money
TTITLE6=Alabama jubilee
TTITLE7=Blind boy rag
TTITLE8=Georgia rag
TTITLE9=Säbeltanz
EXTD=YEAR: 1984/1991 ID3G:   0
EXTT0=
EXTT1=
EXTT2=
EXTT3=
EXTT4=
EXTT5=
EXTT6=
EXTT7=
EXTT8=
EXTT9=
PLAYORDER=
